<svg id="Layer_1" data-name="Layer 1" xmlns="http://www.w3.org/2000/svg" viewBox="0 0 641.92 300.39"><defs><style>.cls-1{fill:#231f20;}</style></defs><path class="cls-1" d="M0,235.06V66.49H49.52c41.85,0,56,27,56,50.69,0,20.23-16,43.94-47,47l56.26,70.92H80.91L28.13,167.17H27.9v67.89ZM78.35,117.41c0-14.88-11.39-25.34-25.57-25.34H27.9v50H48.36C67.42,142.06,78.35,129.5,78.35,117.41ZM46,51.38H42.31V0H46Zm0,249H42.31V213.9H46Z"/><path class="cls-1" d="M231.33,66.49V93.23H189V235.06H160V93.23H117.64V66.49ZM176.47,51.38h-3.72V0h3.72Zm0,249h-3.72V249h3.72Z"/><path class="cls-1" d="M276.67,66.49v143H345v25.58H247.61V66.49ZM264.12,51.38H260.4V0h3.72Zm0,249H260.4V249h3.72Z"/><path class="cls-1" d="M516.14,235.06H485.68l-13.25-37.44H403.61l-13.25,37.44H359l54.64-150.9C418.72,69.75,427.33,63,437.56,63s18.6,7,23.71,21.15ZM437.56,96.49l-25.35,76.72h51.62Zm1.86-45.11H435.7V0h3.72Zm0,249H435.7V213.9h3.72Z"/><path class="cls-1" d="M531.25,66.49h47.2c31.62,0,54.17,16.74,54.17,47,0,11.62-4,24.64-14.88,33a42.73,42.73,0,0,1,24.18,38.83c0,33.95-23.48,49.76-58.13,49.76H531.25ZM605,113.92c0-14.41-10.23-21.85-25.11-21.85H558.45v44.64h20.46C595,136.71,605,128.34,605,113.92Zm8.84,71.15c-.24-15.81-12.33-23.25-29.3-23.25H558.68v47.66h25.81C603.09,209.48,613.79,201.11,613.79,185.07ZM580.31,51.38h-3.72V0h3.72Zm0,249h-3.72V249h3.72Z"/></svg>